<svg width="326" height="326" viewBox="0 0 326 326" fill="none" xmlns="http://www.w3.org/2000/svg">
<g clip-path="url(#clip0_65_416)" filter="url(#filter0_n_65_416)">
<path d="M290.682 163C290.682 149.738 329.081 131.62 325.817 119.378C322.552 107.136 280.032 110.238 273.605 99.1589C267.178 88.08 291.274 52.9664 282.154 43.8462C273.034 34.726 238.063 58.9037 226.841 52.3951C215.62 45.8865 219.272 3.57056 206.622 0.204058C193.972 -3.16245 176.262 35.3381 163 35.3381C149.738 35.3381 131.62 -3.08083 119.399 0.204058C107.177 3.48895 110.258 45.9885 99.1794 52.4155C88.1005 58.8424 52.9869 34.7464 43.8667 43.8666C34.7466 52.9868 58.9242 87.9576 52.4156 99.1793C45.907 110.401 3.57068 106.749 0.20418 119.399C-3.16232 132.049 35.3382 149.758 35.3382 163.02C35.3382 176.282 -3.08071 194.38 0.20418 206.622C3.48907 218.864 45.9886 215.762 52.4156 226.841C58.8426 237.92 34.7466 273.034 43.8667 282.154C52.9869 291.274 87.9577 267.096 99.1794 273.605C110.401 280.114 106.749 322.43 119.399 325.816C132.049 329.203 149.759 290.682 163.021 290.682C176.283 290.682 194.4 329.081 206.642 325.816C218.884 322.552 215.783 280.032 226.862 273.605C237.941 267.178 273.054 291.274 282.174 282.154C291.295 273.034 267.117 238.063 273.626 226.841C280.134 215.62 322.45 219.272 325.837 206.622C329.224 193.972 290.703 176.262 290.703 163H290.682Z" fill="#E6992B"/>
<path d="M150.615 136.313V189.687C150.615 191.87 152.431 193.625 154.696 193.625H191.421C194.686 193.625 196.624 190.116 194.808 187.504C182.566 169.713 170.325 151.921 158.083 134.13C155.838 130.886 150.615 132.416 150.615 136.313Z" fill="#2F7A79"/>
<path d="M106.157 119.297C90.1814 119.297 77.2458 132.253 77.2458 148.208C77.2458 164.163 90.2018 177.119 106.157 177.119C122.112 177.119 135.068 164.163 135.068 148.208C135.068 132.253 122.112 119.297 106.157 119.297ZM106.157 165.775C96.4655 165.775 88.6104 157.92 88.6104 148.228C88.6104 138.537 96.4655 130.682 106.157 130.682C115.848 130.682 123.704 138.537 123.704 148.228C123.704 157.92 115.848 165.775 106.157 165.775Z" fill="#8E6232"/>
<path d="M251.488 141.495H202.215C198.507 141.495 195.502 144.5 195.502 148.208C195.502 151.915 198.507 154.92 202.215 154.92H251.488C255.195 154.92 258.201 151.915 258.201 148.208C258.201 144.5 255.195 141.495 251.488 141.495Z" fill="#8E6232"/>
<path d="M217.517 208.274H108.483C102.702 208.274 98.0164 212.961 98.0164 218.741V247.244C98.0164 253.025 102.702 257.711 108.483 257.711H217.517C223.298 257.711 227.984 253.025 227.984 247.244V218.741C227.984 212.961 223.298 208.274 217.517 208.274Z" fill="#9C1F24"/>
<path d="M242.368 76.5115H83.6321C79.3276 76.5115 75.8381 80.001 75.8381 84.3054V90.6712C75.8381 94.9757 79.3276 98.4652 83.6321 98.4652H242.368C246.672 98.4652 250.162 94.9757 250.162 90.6712V84.3054C250.162 80.001 246.672 76.5115 242.368 76.5115Z" fill="#E0762F"/>
</g>
<defs>
<filter id="filter0_n_65_416" x="0" y="0" width="326" height="326" filterUnits="userSpaceOnUse" color-interpolation-filters="sRGB">
<feFlood flood-opacity="0" result="BackgroundImageFix"/>
<feBlend mode="normal" in="SourceGraphic" in2="BackgroundImageFix" result="shape"/>
<feTurbulence type="fractalNoise" baseFrequency="2 2" stitchTiles="stitch" numOctaves="3" result="noise" seed="9811" />
<feColorMatrix in="noise" type="luminanceToAlpha" result="alphaNoise" />
<feComponentTransfer in="alphaNoise" result="coloredNoise1">
<feFuncA type="discrete" tableValues="0 0 0 0 0 0 0 0 0 0 0 1 1 1 1 1 1 1 1 1 1 1 1 1 1 1 1 1 1 1 1 1 1 1 1 1 1 1 1 0 0 0 0 0 0 0 0 0 0 0 0 0 0 0 0 0 0 0 0 0 0 0 0 0 0 0 0 0 0 0 0 0 0 0 0 0 0 0 0 0 0 0 0 0 0 0 0 0 0 0 0 0 0 0 0 0 0 0 0 0 "/>
</feComponentTransfer>
<feComposite operator="in" in2="shape" in="coloredNoise1" result="noise1Clipped" />
<feFlood flood-color="rgba(0, 0, 0, 0.38)" result="color1Flood" />
<feComposite operator="in" in2="noise1Clipped" in="color1Flood" result="color1" />
<feMerge result="effect1_noise_65_416">
<feMergeNode in="shape" />
<feMergeNode in="color1" />
</feMerge>
</filter>
<clipPath id="clip0_65_416">
<rect width="326" height="326" fill="white"/>
</clipPath>
</defs>
</svg>
