<svg width="120" height="40" viewBox="0 0 120 40" fill="none" xmlns="http://www.w3.org/2000/svg">
<g filter="url(#filter0_n_69_430)">
<rect width="120" height="40" fill="#CFE9E5"/>
<path d="M0 4.54532C0 4.54532 16.7185 2.93605 26.2185 3.18172C30.3031 3.28735 50.106 9.91088 63.0252 9.09085C68.6662 8.7328 89.6526 3.5344 94.7899 3.18172C105.251 2.46353 120 4.54533 120 4.54533V11.7927C120 11.7927 107.737 15.6755 98.3193 15.4545C91.4483 15.2932 77.0462 14.3278 65.5462 14.0909C57.6875 13.929 30.657 17.3103 26.2185 17.2727C11.7185 17.1499 0 11.7927 0 11.7927V4.54532Z" fill="#99CBC5"/>
<path d="M0 23.6364C0 23.6364 13 25.3561 22.5 25.6018C26.5846 25.7074 50.106 24.4564 63.0252 23.6364C68.6662 23.2783 84.8627 26.323 90 25.9703C100.462 25.2521 120 23.6364 120 23.6364V30.8837C120 30.8837 107.918 29.9992 98.5 29.7782C91.6289 29.6169 76.542 35.2369 65.042 35C57.1833 34.8382 29.9385 30.0615 25.5 30.0239C11 29.901 0 30.8837 0 30.8837V23.6364Z" fill="#99CBC5"/>
</g>
<defs>
<filter id="filter0_n_69_430" x="0" y="0" width="120" height="40" filterUnits="userSpaceOnUse" color-interpolation-filters="sRGB">
<feFlood flood-opacity="0" result="BackgroundImageFix"/>
<feBlend mode="normal" in="SourceGraphic" in2="BackgroundImageFix" result="shape"/>
<feTurbulence type="fractalNoise" baseFrequency="2 2" stitchTiles="stitch" numOctaves="3" result="noise" seed="6226" />
<feColorMatrix in="noise" type="luminanceToAlpha" result="alphaNoise" />
<feComponentTransfer in="alphaNoise" result="coloredNoise1">
<feFuncA type="discrete" tableValues="0 0 0 0 0 0 0 0 0 0 0 0 0 0 1 1 1 1 1 1 1 1 1 1 1 1 1 1 1 1 1 1 1 1 1 0 0 0 0 0 0 0 0 0 0 0 0 0 0 0 0 0 0 0 0 0 0 0 0 0 0 0 0 0 0 0 0 0 0 0 0 0 0 0 0 0 0 0 0 0 0 0 0 0 0 0 0 0 0 0 0 0 0 0 0 0 0 0 0 0 "/>
</feComponentTransfer>
<feComposite operator="in" in2="shape" in="coloredNoise1" result="noise1Clipped" />
<feFlood flood-color="rgba(0, 63, 62, 0.34)" result="color1Flood" />
<feComposite operator="in" in2="noise1Clipped" in="color1Flood" result="color1" />
<feMerge result="effect1_noise_69_430">
<feMergeNode in="shape" />
<feMergeNode in="color1" />
</feMerge>
</filter>
</defs>
</svg>
